<?xml version="1.0" encoding="UTF-8" standalone="no"?>
<svg width="201px" height="62px" viewBox="0 0 201 62" version="1.1" xmlns="http://www.w3.org/2000/svg" xmlns:xlink="http://www.w3.org/1999/xlink" xmlns:sketch="http://www.bohemiancoding.com/sketch/ns">
    <!-- Generator: Sketch 3.3.2 (12043) - http://www.bohemiancoding.com/sketch -->
    <title>LOGO</title>
    <desc>Created with Sketch.</desc>
    <defs></defs>
    <g id="Page-1" stroke="none" stroke-width="1" fill="none" fill-rule="evenodd" sketch:type="MSPage">
        <g id="Desktop-HD-[Moondust]" sketch:type="MSArtboardGroup" transform="translate(-181.000000, -154.000000)">
            <g id="LOGO" sketch:type="MSLayerGroup" transform="translate(181.000000, 154.015625)">
                <rect id="Rectangle-3" fill="#000000" sketch:type="MSShapeGroup" x="0" y="0" width="106" height="61" rx="2"></rect>
                <path d="M141.103571,36.575 L138.203571,36.575 L138.203571,28.9 L148.378571,28.9 L148.378571,36.575 L141.103571,36.575 Z M141.103571,34.175 L145.328571,34.175 L145.328571,31.225 L141.103571,31.225 L141.103571,34.175 Z M126.428571,40.025 C127.328576,36.8583175 127.828571,33.4583515 127.928571,29.825 L130.678571,30.075 C130.661905,31.3750065 130.553572,32.8333253 130.353571,34.45 C130.703573,35.0166695 131.120236,35.5249978 131.603571,35.975 L131.603571,28.65 L126.828571,28.65 L126.828571,25.95 L131.078571,25.95 L131.078571,23.5 L127.403571,23.5 L127.403571,20.9 L131.078571,20.9 L131.078571,18.575 L134.203571,18.575 L134.203571,20.9 L137.403571,20.9 L137.403571,23.5 L134.203571,23.5 L134.203571,25.95 L137.653571,25.95 L137.653571,26.325 C139.30358,25.6083298 140.378569,24.3000095 140.878571,22.4 L137.928571,22.4 L137.928571,19.8 L148.903571,19.8 C148.903571,22.266679 148.824406,24.0624944 148.666071,25.1875 C148.507737,26.3125056 148.249407,27.0624981 147.891071,27.4375 C147.532736,27.8125019 146.961909,28 146.178571,28 C145.328567,28 144.303577,27.9583338 143.103571,27.875 L142.878571,25.425 C143.878576,25.5083338 144.570236,25.55 144.953571,25.55 C145.303573,25.55 145.541071,25.3583353 145.666071,24.975 C145.791072,24.5916648 145.861905,23.73334 145.878571,22.4 L143.578571,22.4 C143.311903,23.9500078 142.761909,25.2749945 141.928571,26.375 C141.095234,27.4750055 140.028578,28.2749975 138.728571,28.775 L137.653571,26.825 L137.653571,28.65 L134.653571,28.65 L134.653571,31.35 L137.528571,31.35 L137.528571,33.95 L134.653571,33.95 L134.653571,37.525 C136.186912,37.8916685 138.778553,38.075 142.428571,38.075 L149.028571,38.075 L148.878571,40.775 L142.428571,40.775 C138.79522,40.775 136.07858,40.5500023 134.278571,40.1 C132.478562,39.6499978 131.020244,38.8000063 129.903571,37.55 C129.670237,38.8500065 129.39524,40.0499945 129.078571,41.15 L126.428571,40.025 Z M164.067857,35.7 C165.434531,35.0833303 166.609519,34.3500043 167.592857,33.5 L160.292857,33.5 C161.426196,34.3500043 162.684517,35.0833303 164.067857,35.7 L164.067857,35.7 Z M164.342857,27.15 C164.709526,27.15 164.922024,27.1083338 164.980357,27.025 C165.038691,26.9416663 165.067857,26.666669 165.067857,26.2 L165.067857,22.925 L163.092857,22.925 C162.97619,24.6416753 162.613694,26.0833275 162.005357,27.25 C161.397021,28.4166725 160.48453,29.4916618 159.267857,30.475 L156.892857,28.55 C157.909529,27.7666628 158.663688,26.9500043 159.155357,26.1 C159.647026,25.2499958 159.95119,24.191673 160.067857,22.925 L152.942857,22.925 L152.942857,20.325 L161.967857,20.325 L161.967857,18.45 L165.317857,18.45 L165.317857,20.325 L174.342857,20.325 L174.342857,22.925 L168.167857,22.925 L168.167857,26 C168.167857,26.9166713 168.142857,27.5999978 168.092857,28.05 C168.042857,28.5000023 167.913692,28.8666653 167.705357,29.15 C167.497023,29.4333348 167.238692,29.6041664 166.930357,29.6625 C166.622022,29.7208336 166.151194,29.75 165.517857,29.75 C165.134522,29.75 164.167865,29.7083338 162.617857,29.625 L162.392857,27.025 C163.426196,27.1083338 164.076189,27.15 164.342857,27.15 L164.342857,27.15 Z M154.942857,30.7 L152.317857,29.125 C153.751198,27.5583255 154.876186,25.7166773 155.692857,23.6 L158.567857,24.45 C157.801187,26.8166785 156.592865,28.899991 154.942857,30.7 L154.942857,30.7 Z M168.367857,24.85 L171.042857,23.575 C172.542865,25.2916753 173.851185,27.1416568 174.967857,29.125 L172.267857,30.45 C171.267852,28.649991 169.967865,26.783343 168.367857,24.85 L168.367857,24.85 Z M152.492857,33.8 C156.292876,32.5666605 159.20118,31.0666755 161.217857,29.3 L163.842857,30.275 C163.526189,30.608335 163.226192,30.8999988 162.942857,31.15 L171.317857,31.15 L171.317857,33.5 C170.234518,34.8166733 168.892865,35.941662 167.292857,36.875 C169.359534,37.475003 171.792843,37.8916655 174.592857,38.125 L173.842857,40.85 C170.259506,40.516665 166.951206,39.7333395 163.917857,38.5 C161.001176,39.633339 157.509544,40.4166645 153.442857,40.85 L152.692857,38.125 C155.809539,37.8749988 158.442846,37.4666695 160.592857,36.9 C159.626186,36.3333305 158.776194,35.750003 158.042857,35.15 L159.542857,33.6 C157.659514,34.733339 155.742867,35.6166635 153.792857,36.25 L152.492857,33.8 Z M177.882143,38.3 C184.415509,34.833316 187.682143,29.2917048 187.682143,21.675 L187.682143,18.9 L191.032143,18.9 L191.032143,21.675 C191.032143,29.2917048 194.298777,34.833316 200.832143,38.3 L199.007143,40.85 C196.923799,39.8333283 195.052984,38.3500098 193.394643,36.4 C191.736301,34.4499903 190.440481,32.2250125 189.507143,29.725 C188.540471,32.2083458 187.198818,34.4291569 185.482143,36.3875 C183.765468,38.3458431 181.840487,39.8333283 179.707143,40.85 L177.882143,38.3 Z" id="超変人" fill="#58E4DB" sketch:type="MSShapeGroup"></path>
                <path d="M20.34,22.9 L28.666,22.9 C29.0646687,22.9 29.3789988,23.0073323 29.609,23.222 C29.8390011,23.4366677 29.954,23.7433313 29.954,24.142 C29.954,24.5406687 29.8390011,24.8473323 29.609,25.062 C29.3789988,25.2766677 29.0646687,25.384 28.666,25.384 L21.628,25.384 L21.628,29.708 L26.78,29.708 C27.1786687,29.708 27.4929988,29.8153323 27.723,30.03 C27.9530011,30.2446677 28.068,30.5513313 28.068,30.95 C28.068,31.3486687 27.9530011,31.6553323 27.723,31.87 C27.4929988,32.0846677 27.1786687,32.192 26.78,32.192 L21.628,32.192 L21.628,37.643 C21.628,38.0416687 21.5015013,38.3674987 21.2485,38.6205 C20.9954987,38.8735013 20.6696687,39 20.271,39 C19.8723313,39 19.5465013,38.8735013 19.2935,38.6205 C19.0404987,38.3674987 18.914,38.0416687 18.914,37.643 L18.914,24.326 C18.914,23.8813311 19.0404987,23.5325013 19.2935,23.2795 C19.5465013,23.0264987 19.8953311,22.9 20.34,22.9 L20.34,22.9 Z M36.187,34.607 L34.922,37.988 C34.6766654,38.66267 34.2626696,39 33.68,39 C33.2813313,39 32.9555013,38.8773346 32.7025,38.632 C32.4494987,38.3866654 32.323,38.0493355 32.323,37.62 C32.323,37.4359991 32.3613329,37.2290011 32.438,36.999 L37.475,23.843 C37.7510014,23.1223297 38.1726638,22.762 38.74,22.762 C39.3073362,22.762 39.7289986,23.1223297 40.005,23.843 L45.042,36.999 C45.118667,37.2290011 45.157,37.4359991 45.157,37.62 C45.157,38.0493355 45.0305013,38.3866654 44.7775,38.632 C44.5244987,38.8773346 44.1986687,39 43.8,39 C43.2173304,39 42.8033346,38.66267 42.558,37.988 L41.293,34.607 L36.187,34.607 Z M40.373,32.123 L38.74,27.753 L37.107,32.123 L40.373,32.123 Z M49.274,22.9 L53.759,22.9 C55.1696737,22.9 56.3119956,23.2909961 57.186,24.073 C58.0600044,24.8550039 58.497,25.9436597 58.497,27.339 C58.497,28.7343403 58.0063382,29.8076629 57.025,30.559 C58.6196746,31.2643369 59.417,32.513991 59.417,34.308 C59.417,35.7340071 58.9723378,36.8724957 58.083,37.7235 C57.1936622,38.5745043 55.9746744,39 54.426,39 L49.274,39 C48.8293311,39 48.4805013,38.8735013 48.2275,38.6205 C47.9744987,38.3674987 47.848,38.0186689 47.848,37.574 L47.848,24.326 C47.848,23.8813311 47.9744987,23.5325013 48.2275,23.2795 C48.4805013,23.0264987 48.8293311,22.9 49.274,22.9 L49.274,22.9 Z M50.562,32.1 L50.562,36.516 L54.058,36.516 C55.8213421,36.516 56.703,35.7800074 56.703,34.308 C56.703,32.8359926 55.8213421,32.1 54.058,32.1 L50.562,32.1 Z M50.562,25.384 L50.562,29.616 L53.299,29.616 C54.9550083,29.616 55.783,28.9106737 55.783,27.5 C55.783,26.0893263 54.9550083,25.384 53.299,25.384 L50.562,25.384 Z" id="FAB_*" fill="#FFFFFF" sketch:type="MSShapeGroup"></path>
                <path d="M62.43,39 L72.113,39 C72.9563375,39 73.378,39.3986627 73.378,40.196 C73.378,40.9933373 72.9563375,41.392 72.113,41.392 L62.43,41.392 C61.5866624,41.392 61.165,40.9933373 61.165,40.196 C61.165,39.3986627 61.5866624,39 62.43,39 L62.43,39 Z" id="Path" fill="#58E4DB" sketch:type="MSShapeGroup"></path>
                <path d="M82.808,26.672 L85.016,25.384 C85.2306677,25.2613327 85.4453323,25.2 85.66,25.2 C86.1046689,25.2 86.4266657,25.3916647 86.626,25.775 C86.7333339,25.9436675 86.787,26.1353323 86.787,26.35 C86.787,26.7946689 86.5800021,27.1319988 86.166,27.362 L83.958,28.65 L86.166,29.938 C86.5800021,30.1680011 86.787,30.5053311 86.787,30.95 C86.787,31.1646677 86.7333339,31.3563325 86.626,31.525 C86.4266657,31.9083352 86.1046689,32.1 85.66,32.1 C85.4453323,32.1 85.2306677,32.0386673 85.016,31.916 L82.808,30.628 L82.808,33.204 C82.808,33.5260016 82.7006677,33.8058321 82.486,34.0435 C82.2713323,34.2811679 81.995335,34.4 81.658,34.4 C81.320665,34.4 81.0446677,34.2811679 80.83,34.0435 C80.6153323,33.8058321 80.508,33.5260016 80.508,33.204 L80.508,30.628 L78.3,31.916 C78.0853323,32.0386673 77.8706677,32.1 77.656,32.1 C77.2113311,32.1 76.8893343,31.9083352 76.69,31.525 C76.5826661,31.3563325 76.529,31.1646677 76.529,30.95 C76.529,30.5053311 76.7359979,30.1680011 77.15,29.938 L79.358,28.65 L77.15,27.362 C76.7359979,27.1319988 76.529,26.7946689 76.529,26.35 C76.529,26.1353323 76.5826661,25.9436675 76.69,25.775 C76.8893343,25.3916647 77.2113311,25.2 77.656,25.2 C77.8706677,25.2 78.0853323,25.2613327 78.3,25.384 L80.508,26.672 L80.508,24.096 C80.508,23.7739984 80.6153323,23.4941679 80.83,23.2565 C81.0446677,23.0188321 81.320665,22.9 81.658,22.9 C81.995335,22.9 82.2713323,23.0188321 82.486,23.2565 C82.7006677,23.4941679 82.808,23.7739984 82.808,24.096 L82.808,26.672 Z" id="Path" fill="#58E4DB" sketch:type="MSShapeGroup"></path>
            </g>
        </g>
    </g>
</svg>