<?xml version="1.0" encoding="UTF-8" standalone="no"?>
<svg width="166px" height="61px" viewBox="0 0 166 61" version="1.1" xmlns="http://www.w3.org/2000/svg" xmlns:xlink="http://www.w3.org/1999/xlink">
    <!-- Generator: Sketch Beta 3.6 (26304) - http://www.bohemiancoding.com/sketch -->
    <title>Fabio</title>
    <desc>Created with Sketch Beta.</desc>
    <defs></defs>
    <g id="Page-1" stroke="none" stroke-width="1" fill="none" fill-rule="evenodd">
        <path d="M80.75,8.171875 L80.75,11.890625 L91.140625,11.890625 L91.140625,16.90625 L80.75,16.90625 L80.75,26 L75.71875,26 L75.71875,3.15625 L91.59375,3.15625 L91.59375,8.171875 L80.75,8.171875 Z M101.890625,9.140625 C102.880213,9.140625 103.78385,9.26562375 104.601562,9.515625 C105.419275,9.76562625 106.104164,10.1015604 106.65625,10.5234375 C107.208336,10.9453146 107.677081,11.4453096 108.0625,12.0234375 C108.447919,12.6015654 108.726562,13.2083302 108.898438,13.84375 C109.070313,14.4791698 109.15625,15.1406216 109.15625,15.828125 L109.15625,26 L104.578125,26 L104.578125,24.296875 L104.359375,24.296875 C102.963535,25.6927153 101.286468,26.390625 99.328125,26.390625 C97.7239503,26.390625 96.3802137,25.908859 95.296875,24.9453125 C94.2135363,23.981766 93.671875,22.796882 93.671875,21.390625 C93.671875,19.9114509 94.1380162,18.7343794 95.0703125,17.859375 C96.0026088,16.9843706 97.2499922,16.3906266 98.8125,16.078125 C101.020844,15.6614563 102.9427,15.3437511 104.578125,15.125 C104.578125,14.6041641 104.312503,14.1484395 103.78125,13.7578125 C103.249997,13.3671855 102.546879,13.171875 101.671875,13.171875 C100.973955,13.171875 100.361982,13.320311 99.8359375,13.6171875 C99.3098932,13.914064 98.9375011,14.265623 98.71875,14.671875 L94.34375,13.8125 C94.5104175,13.2812473 94.778644,12.7604192 95.1484375,12.25 C95.518231,11.7395808 95.999997,11.2421899 96.59375,10.7578125 C97.187503,10.2734351 97.9453079,9.88281398 98.8671875,9.5859375 C99.7890671,9.28906102 100.79687,9.140625 101.890625,9.140625 L101.890625,9.140625 Z M104.609375,19.765625 L104.609375,18.28125 C103.54687,18.4791677 102.536463,18.6822906 101.578125,18.890625 C101.234373,18.963542 101.000001,19.0156248 100.875,19.046875 C100.749999,19.0781252 100.528647,19.1380204 100.210938,19.2265625 C99.8932276,19.3151046 99.6640632,19.4036454 99.5234375,19.4921875 C99.3828118,19.5807296 99.2161468,19.6953118 99.0234375,19.8359375 C98.8307282,19.9765632 98.6953129,20.1406241 98.6171875,20.328125 C98.5390621,20.5156259 98.5,20.7291655 98.5,20.96875 C98.5,21.5104194 98.7187478,21.9036446 99.15625,22.1484375 C99.5937522,22.3932304 100.151038,22.515625 100.828125,22.515625 C101.473962,22.515625 102.158851,22.367189 102.882812,22.0703125 C103.606774,21.773436 104.109374,21.3645859 104.390625,20.84375 C104.536459,20.5624986 104.609375,20.2031272 104.609375,19.765625 L104.609375,19.765625 Z M117.703125,2.515625 L117.703125,10.796875 C118.932298,9.69270281 120.447908,9.140625 122.25,9.140625 C124.31251,9.140625 126.028639,9.93488789 127.398438,11.5234375 C128.768236,13.1119871 129.453125,15.1510292 129.453125,17.640625 C129.453125,19.3073 129.161461,20.8098891 128.578125,22.1484375 C127.994789,23.4869859 127.15886,24.5390587 126.070312,25.3046875 C124.981765,26.0703163 123.73959,26.453125 122.34375,26.453125 C120.562491,26.453125 119.015632,25.8854223 117.703125,24.75 L117.703125,26 L113,26 L113,2.515625 L117.703125,2.515625 Z M121.09375,13.265625 C119.999995,13.265625 119.156253,13.6900999 118.5625,14.5390625 C117.968747,15.3880251 117.671875,16.4583269 117.671875,17.75 C117.671875,19.1145902 117.98958,20.2161416 118.625,21.0546875 C119.26042,21.8932334 120.083328,22.3125 121.09375,22.3125 C122.208339,22.3125 123.080726,21.8724002 123.710937,20.9921875 C124.341149,20.1119748 124.65625,19.0312564 124.65625,17.75 C124.65625,16.4583269 124.328128,15.3880251 123.671875,14.5390625 C123.015622,13.6900999 122.156255,13.265625 121.09375,13.265625 L121.09375,13.265625 Z M132.65625,4.96875 C132.65625,4.20832953 132.921872,3.5651068 133.453125,3.0390625 C133.984378,2.5130182 134.624996,2.25 135.375,2.25 C136.145837,2.25 136.791664,2.51041406 137.3125,3.03125 C137.833336,3.55208594 138.09375,4.19791281 138.09375,4.96875 C138.09375,5.71875375 137.830732,6.36197648 137.304688,6.8984375 C136.778643,7.43489852 136.13542,7.703125 135.375,7.703125 C134.624996,7.703125 133.984378,7.43489852 133.453125,6.8984375 C132.921872,6.36197648 132.65625,5.71875375 132.65625,4.96875 L132.65625,4.96875 Z M137.734375,26 L133.03125,26 L133.03125,9.609375 L137.734375,9.609375 L137.734375,26 Z M149.90625,9.140625 C151.489591,9.140625 152.940098,9.51822539 154.257812,10.2734375 C155.575527,11.0286496 156.61458,12.0650976 157.375,13.3828125 C158.13542,14.7005274 158.515625,16.1458255 158.515625,17.71875 C158.515625,19.0416733 158.276044,20.2604111 157.796875,21.375 C157.317706,22.4895889 156.677087,23.4114547 155.875,24.140625 C155.072913,24.8697953 154.156255,25.437498 153.125,25.84375 C152.093745,26.250002 151.020839,26.453125 149.90625,26.453125 C148.791661,26.453125 147.721359,26.250002 146.695312,25.84375 C145.669266,25.437498 144.752608,24.8697953 143.945312,24.140625 C143.138017,23.4114547 142.494794,22.4895889 142.015625,21.375 C141.536456,20.2604111 141.296875,19.0416733 141.296875,17.71875 C141.296875,16.5416608 141.520831,15.4218803 141.96875,14.359375 C142.416669,13.2968697 143.026038,12.3854205 143.796875,11.625 C144.567712,10.8645795 145.48437,10.2604189 146.546875,9.8125 C147.60938,9.36458109 148.729161,9.140625 149.90625,9.140625 L149.90625,9.140625 Z M149.90625,13.296875 C148.802078,13.296875 147.854171,13.7031209 147.0625,14.515625 C146.270829,15.3281291 145.875,16.3958267 145.875,17.71875 C145.875,19.0833402 146.257809,20.1796834 147.023438,21.0078125 C147.789066,21.8359416 148.749994,22.25 149.90625,22.25 C151.062506,22.25 152.023434,21.8359416 152.789062,21.0078125 C153.554691,20.1796834 153.9375,19.0833402 153.9375,17.71875 C153.9375,16.3958267 153.541671,15.3281291 152.75,14.515625 C151.958329,13.7031209 151.010422,13.296875 149.90625,13.296875 L149.90625,13.296875 Z M75.71875,60 L85.03125,60 C87.4479288,60 89.4010342,59.3776104 90.890625,58.1328125 C92.3802158,56.8880146 93.125,55.2083439 93.125,53.09375 C93.125,52.2916627 93.0026054,51.5546909 92.7578125,50.8828125 C92.5130196,50.2109341 92.1953145,49.6640646 91.8046875,49.2421875 C91.4140605,48.8203104 91.0130229,48.479168 90.6015625,48.21875 C90.1901021,47.958332 89.7760437,47.7812505 89.359375,47.6875 L88.84375,47.75 C89.6562541,47.3020811 90.3177058,46.6927122 90.828125,45.921875 C91.3385442,45.1510378 91.59375,44.2031306 91.59375,43.078125 C91.59375,41.3906166 90.981777,39.9817765 89.7578125,38.8515625 C88.533848,37.7213485 87.0104258,37.15625 85.1875,37.15625 L75.71875,37.15625 L75.71875,60 Z M80.640625,42.015625 L84.484375,42.015625 C85.2760456,42.015625 85.8906228,42.18229 86.328125,42.515625 C86.7656272,42.84896 86.984375,43.3229136 86.984375,43.9375 C86.984375,44.5833366 86.7656272,45.0703109 86.328125,45.3984375 C85.8906228,45.7265641 85.2760456,45.890625 84.484375,45.890625 L80.640625,45.890625 L80.640625,42.015625 Z M80.640625,50.4375 L85.453125,50.4375 C86.3489628,50.4375 87.0572891,50.6354147 87.578125,51.03125 C88.0989609,51.4270853 88.359375,52.0260377 88.359375,52.828125 C88.359375,53.5572953 88.0937527,54.124998 87.5625,54.53125 C87.0312473,54.937502 86.3281294,55.140625 85.453125,55.140625 L80.640625,55.140625 L80.640625,50.4375 Z M103.578125,43.140625 C104.567713,43.140625 105.47135,43.2656238 106.289062,43.515625 C107.106775,43.7656262 107.791664,44.1015604 108.34375,44.5234375 C108.895836,44.9453146 109.364581,45.4453096 109.75,46.0234375 C110.135419,46.6015654 110.414062,47.2083302 110.585938,47.84375 C110.757813,48.4791698 110.84375,49.1406216 110.84375,49.828125 L110.84375,60 L106.265625,60 L106.265625,58.296875 L106.046875,58.296875 C104.651035,59.6927153 102.973968,60.390625 101.015625,60.390625 C99.4114503,60.390625 98.0677137,59.908859 96.984375,58.9453125 C95.9010363,57.981766 95.359375,56.796882 95.359375,55.390625 C95.359375,53.9114509 95.8255162,52.7343794 96.7578125,51.859375 C97.6901088,50.9843706 98.9374922,50.3906266 100.5,50.078125 C102.708344,49.6614563 104.6302,49.3437511 106.265625,49.125 C106.265625,48.6041641 106.000003,48.1484395 105.46875,47.7578125 C104.937497,47.3671855 104.234379,47.171875 103.359375,47.171875 C102.661455,47.171875 102.049482,47.320311 101.523438,47.6171875 C100.997393,47.914064 100.625001,48.265623 100.40625,48.671875 L96.03125,47.8125 C96.1979175,47.2812473 96.466144,46.7604192 96.8359375,46.25 C97.205731,45.7395808 97.687497,45.2421899 98.28125,44.7578125 C98.875003,44.2734351 99.6328079,43.882814 100.554688,43.5859375 C101.476567,43.289061 102.48437,43.140625 103.578125,43.140625 L103.578125,43.140625 Z M106.296875,53.765625 L106.296875,52.28125 C105.23437,52.4791677 104.223963,52.6822906 103.265625,52.890625 C102.921873,52.963542 102.687501,53.0156248 102.5625,53.046875 C102.437499,53.0781252 102.216147,53.1380204 101.898437,53.2265625 C101.580728,53.3151046 101.351563,53.4036454 101.210937,53.4921875 C101.070312,53.5807296 100.903647,53.6953118 100.710937,53.8359375 C100.518228,53.9765632 100.382813,54.1406241 100.304687,54.328125 C100.226562,54.5156259 100.1875,54.7291655 100.1875,54.96875 C100.1875,55.5104194 100.406248,55.9036446 100.84375,56.1484375 C101.281252,56.3932304 101.838538,56.515625 102.515625,56.515625 C103.161462,56.515625 103.846351,56.367189 104.570312,56.0703125 C105.294274,55.773436 105.796874,55.3645859 106.078125,54.84375 C106.223959,54.5624986 106.296875,54.2031272 106.296875,53.765625 L106.296875,53.765625 Z M120.828125,43.140625 C122.671884,43.140625 124.223952,43.5885372 125.484375,44.484375 C126.744798,45.3802128 127.520832,46.3906194 127.8125,47.515625 L123.65625,48.1875 C123.05208,47.2499953 122.109381,46.78125 120.828125,46.78125 C120.223955,46.78125 119.726564,46.9062488 119.335938,47.15625 C118.945311,47.4062512 118.75,47.7083316 118.75,48.0625 C118.75,48.1979173 118.770833,48.3177078 118.8125,48.421875 C118.854167,48.5260422 118.929687,48.6223954 119.039062,48.7109375 C119.148438,48.7994796 119.247395,48.8723955 119.335938,48.9296875 C119.42448,48.9869795 119.565103,49.0468747 119.757812,49.109375 C119.950522,49.1718753 120.101562,49.2161457 120.210938,49.2421875 C120.320313,49.2682293 120.497395,49.3124997 120.742188,49.375 C120.98698,49.4375003 121.15625,49.4791666 121.25,49.5 L123.359375,50.078125 C124.119795,50.2864594 124.786455,50.520832 125.359375,50.78125 C125.932295,51.041668 126.460935,51.3645814 126.945312,51.75 C127.42969,52.1354186 127.802082,52.606768 128.0625,53.1640625 C128.322918,53.721357 128.453125,54.3489548 128.453125,55.046875 C128.453125,55.8593791 128.247398,56.6145798 127.835938,57.3125 C127.424477,58.0104202 126.88542,58.5885394 126.21875,59.046875 C125.55208,59.5052106 124.796879,59.8619779 123.953125,60.1171875 C123.109371,60.3723971 122.250004,60.4947917 121.375,60.484375 C119.479157,60.4635416 117.825528,60.0104211 116.414062,59.125 C115.002597,58.2395789 114.052086,57.0572991 113.5625,55.578125 L118.171875,54.90625 C118.921879,56.0416723 120.031243,56.609375 121.5,56.609375 C122.270837,56.609375 122.874998,56.4921887 123.3125,56.2578125 C123.750002,56.0234363 123.96875,55.703127 123.96875,55.296875 C123.96875,55.0885406 123.890626,54.8984384 123.734375,54.7265625 C123.578124,54.5546866 123.359376,54.4062506 123.078125,54.28125 C122.796874,54.1562494 122.497397,54.0468755 122.179688,53.953125 C121.861978,53.8593745 121.50521,53.7604172 121.109375,53.65625 C121.046875,53.6458333 121,53.6354167 120.96875,53.625 L118.71875,53.0625 C115.729152,52.3124963 114.234375,50.7291788 114.234375,48.3125 C114.234375,46.7812423 114.869785,45.5364631 116.140625,44.578125 C117.411465,43.6197869 118.973949,43.140625 120.828125,43.140625 L120.828125,43.140625 Z M131.65625,38.96875 C131.65625,38.2083295 131.921872,37.5651068 132.453125,37.0390625 C132.984378,36.5130182 133.624996,36.25 134.375,36.25 C135.145837,36.25 135.791664,36.5104141 136.3125,37.03125 C136.833336,37.5520859 137.09375,38.1979128 137.09375,38.96875 C137.09375,39.7187537 136.830732,40.3619765 136.304688,40.8984375 C135.778643,41.4348985 135.13542,41.703125 134.375,41.703125 C133.624996,41.703125 132.984378,41.4348985 132.453125,40.8984375 C131.921872,40.3619765 131.65625,39.7187537 131.65625,38.96875 L131.65625,38.96875 Z M136.734375,60 L132.03125,60 L132.03125,43.609375 L136.734375,43.609375 L136.734375,60 Z M141.25,36.515625 L145.953125,36.515625 L145.953125,60.03125 L141.25,60.03125 L141.25,36.515625 Z M165.515625,51.71875 C165.515625,52.4687537 165.484375,53.0416647 165.421875,53.4375 L153.765625,53.4375 C153.890626,54.2500041 154.289059,54.9166641 154.960938,55.4375 C155.632816,55.9583359 156.45312,56.21875 157.421875,56.21875 C158.765632,56.21875 159.906245,55.6562556 160.84375,54.53125 L164.640625,56.515625 C163.828121,57.7135477 162.773444,58.6692673 161.476562,59.3828125 C160.179681,60.0963577 158.802091,60.453125 157.34375,60.453125 C156.239578,60.453125 155.177088,60.250002 154.15625,59.84375 C153.135412,59.437498 152.229171,58.8697953 151.4375,58.140625 C150.645829,57.4114547 150.015627,56.492193 149.546875,55.3828125 C149.078123,54.273432 148.84375,53.0625066 148.84375,51.75 C148.84375,50.1874922 149.200517,48.7526107 149.914062,47.4453125 C150.627608,46.1380143 151.624994,45.0989622 152.90625,44.328125 C154.187506,43.5572878 155.614575,43.171875 157.1875,43.171875 C158.802091,43.171875 160.249994,43.559892 161.53125,44.3359375 C162.812506,45.111983 163.796872,46.148431 164.484375,47.4453125 C165.171878,48.742194 165.515625,50.1666589 165.515625,51.71875 L165.515625,51.71875 Z M153.671875,50.109375 L160.96875,50.109375 C160.864583,49.3385378 160.476566,48.6614613 159.804688,48.078125 C159.132809,47.4947887 158.302088,47.203125 157.3125,47.203125 C156.343745,47.203125 155.523441,47.4973929 154.851562,48.0859375 C154.179684,48.6744821 153.786459,49.3489545 153.671875,50.109375 Z M56.0000486,28.8748499 L40.1195534,0 C7.3902402,0 0,14.2995237 0,26.4294392 C0,37.1113431 6.00805612,46.2479048 16.9036251,50.3807028 L16.9036251,59.7103841 L39.9423504,59.7103841 L39.9423504,51.8366165 C51.9921602,48.8226401 46.3844088,41.1038307 46.3844088,28.8910395 L56.0000486,28.8748499 Z M40.9856214,29.0201714 C38.6724917,29.8392915 37.169461,30.0775109 36.4230777,31.8691674 C35.6765007,33.6637149 36.5718121,34.8902749 37.6241854,37.0936116 L34.3874693,40.3161263 C32.1521928,39.2589796 30.9367539,38.3777991 29.1492299,39.1165491 L29.1478742,39.1165491 C27.3374978,39.8664776 27.1008397,41.352265 26.2764096,43.6587144 L21.6983727,43.6587144 C20.8723933,41.3466757 20.6372845,39.8622374 18.8383342,39.1207892 L18.8369786,39.1207892 C17.0337677,38.37645 15.7985751,39.2674599 13.5859573,40.3147772 L10.3492412,37.0922624 C11.387477,34.9197633 12.2996372,33.6735444 11.5489933,31.8664691 C10.8024164,30.075969 9.3009349,29.8377496 6.98916086,29.0201714 L6.98916086,24.4639365 C9.30519552,23.6434672 10.8024164,23.4081389 11.5489933,21.6162896 C12.2969259,19.8217421 11.4045195,18.6009641 10.3492412,16.3904963 L13.5859573,13.1693307 C15.8169732,14.225321 17.036479,15.1076579 18.8369786,14.3633187 L18.8383342,14.3633187 C20.6372845,13.6205213 20.8739426,12.130301 21.6983727,9.82558619 L26.2764096,9.82558619 C27.1037447,12.1416723 27.3388534,13.6218704 29.136448,14.3633187 L29.1378037,14.3633187 C30.9425639,15.1076579 32.1777565,14.2152988 34.388825,13.1693307 L37.6257347,16.3904963 C36.5675515,18.6080952 35.6794057,19.8246331 36.425789,21.6162896 L36.425789,21.6178315 C37.1710103,23.4038987 38.646928,23.6365288 40.9856214,24.4639365 L40.9856214,29.0201714 Z M23.9873911,19.6935739 C20.0749794,19.6935739 16.904884,22.8497881 16.904884,26.7420539 C16.904884,30.6343198 20.0749794,33.7907267 23.9873911,33.7907267 C27.8998029,33.7907267 31.0698983,30.6343198 31.0698983,26.7420539 C31.0698983,22.8497881 27.8998029,19.6935739 23.9873911,19.6935739 Z M23.9873911,30.971219 C21.6444371,30.971219 19.7378094,29.0737515 19.7378094,26.7420539 C19.7378094,24.4103564 21.6444371,22.5128888 23.9873911,22.5128888 C26.3303452,22.5128888 28.2369729,24.4103564 28.2369729,26.7420539 C28.2369729,29.0737515 26.3303452,30.971219 23.9873911,30.971219 Z" id="Fabio" fill="#2C3D50"></path>
    </g>
</svg>